<svg id="Capa_1" enable-background="new 0 0 512 512" viewBox="0 0 512 512" xmlns="http://www.w3.org/2000/svg"><g><g><path d="m501.073 269.414-1.052-.635c-8.88-5.367-18.945-11.45-38.19-11.45s-29.308 6.084-38.188 11.452c-8.244 4.983-15.364 9.288-30.427 9.288s-22.184-4.305-30.429-9.288c-8.879-5.368-18.943-11.452-38.188-11.452-19.244 0-29.308 6.084-38.187 11.452-8.244 4.983-15.364 9.288-30.426 9.288s-22.182-4.305-30.426-9.288c-8.879-5.368-18.942-11.452-38.186-11.452-.252 0-.488.014-.738.016l16.841-29.171c2.227-3.854 2.228-8.645.001-12.501l-36.413-63.067c-2.225-3.856-6.373-6.252-10.826-6.252h-72.825c-4.453 0-8.602 2.396-10.825 6.25l-7.326 12.688c-2.071 3.587-.842 8.174 2.745 10.245 3.587 2.069 8.174.843 10.245-2.745l6.604-11.438h69.94l34.97 60.569-34.97 60.57h-69.94l-34.97-60.57 10.866-18.819c2.071-3.587.842-8.174-2.745-10.245s-8.174-.843-10.245 2.745l-11.588 20.071c-2.225 3.855-2.224 8.645.001 12.498l16.862 29.205c-.946-.031-1.902-.05-2.877-.05-19.245 0-29.309 6.084-38.188 11.452l-1.045.631c-6.741 4.061-10.928 11.454-10.928 19.296v162.293c0 12.406 10.093 22.5 22.5 22.5h467c12.407 0 22.5-10.094 22.5-22.5v-162.291c0-7.842-4.187-15.235-10.927-19.295zm-4.073 55.414c-8.214-4.838-18.064-9.643-35.169-9.643-19.246 0-29.315 6.082-38.199 11.447-4.743 2.864-9.223 5.57-15.042 7.291-3.972 1.175-6.24 5.347-5.065 9.319 1.174 3.973 5.348 6.243 9.319 5.065 7.669-2.269 13.197-5.607 18.543-8.836 8.251-4.983 15.376-9.287 30.444-9.287 15.066 0 22.188 4.305 30.434 9.289 1.534.928 3.097 1.872 4.735 2.803v108.724c0 4.136-3.364 7.5-7.5 7.5h-467c-4.136 0-7.5-3.364-7.5-7.5v-108.725c1.636-.931 3.198-1.874 4.73-2.801 8.245-4.984 15.365-9.289 30.429-9.289 15.062 0 22.182 4.305 30.425 9.288 8.879 5.368 18.942 11.452 38.187 11.452 19.242 0 29.304-6.084 38.182-11.452 8.243-4.983 15.362-9.288 30.422-9.288 15.062 0 22.182 4.305 30.425 9.288 8.879 5.368 18.942 11.452 38.187 11.452s29.308-6.084 38.187-11.452c8.244-4.983 15.364-9.288 30.426-9.288 15.068 0 22.194 4.304 30.445 9.287 5.347 3.229 10.875 6.567 18.545 8.836 3.972 1.176 8.145-1.094 9.319-5.065 1.175-3.973-1.093-8.145-5.065-9.319-5.82-1.721-10.3-4.427-15.043-7.291-8.884-5.366-18.954-11.447-38.2-11.447-19.244 0-29.308 6.084-38.187 11.452-8.244 4.983-15.364 9.288-30.426 9.288s-22.182-4.305-30.426-9.288c-8.879-5.368-18.942-11.452-38.186-11.452-19.242 0-29.305 6.084-38.183 11.452-8.243 4.983-15.362 9.288-30.421 9.288-15.062 0-22.182-4.305-30.426-9.288-8.879-5.368-18.942-11.452-38.186-11.452-17.099 0-26.946 4.803-35.159 9.639v-36.118c0-2.614 1.404-5.084 3.666-6.446l1.065-.643c8.245-4.984 15.365-9.289 30.428-9.289 4.484 0 8.5.399 12.202 1.201l10.226 17.712c2.225 3.856 6.373 6.252 10.826 6.252h72.827c4.453 0 8.602-2.396 10.825-6.25l10.487-18.164c3.026-.496 6.252-.751 9.822-.751 15.062 0 22.182 4.305 30.425 9.288 8.879 5.368 18.942 11.452 38.187 11.452s29.308-6.084 38.187-11.452c8.244-4.983 15.364-9.288 30.426-9.288 15.063 0 22.184 4.305 30.428 9.288 8.879 5.368 18.943 11.452 38.188 11.452s29.308-6.084 38.188-11.452c8.244-4.983 15.364-9.288 30.427-9.288 15.064 0 22.186 4.304 30.432 9.288l1.071.646c2.261 1.362 3.666 3.832 3.666 6.445z"/><path d="m255.992 374.5c-14.561 0-26.408 11.847-26.408 26.407 0 14.562 11.847 26.408 26.408 26.408s26.408-11.847 26.408-26.408c-.001-14.56-11.847-26.407-26.408-26.407zm0 37.815c-6.29 0-11.408-5.118-11.408-11.408s5.118-11.407 11.408-11.407 11.408 5.117 11.408 11.407-5.118 11.408-11.408 11.408z"/><path d="m366.814 400.907c0 14.562 11.847 26.408 26.408 26.408s26.407-11.847 26.407-26.408-11.846-26.407-26.407-26.407-26.408 11.847-26.408 26.407zm37.815 0c0 6.29-5.117 11.408-11.407 11.408s-11.408-5.118-11.408-11.408 5.118-11.407 11.408-11.407 11.407 5.117 11.407 11.407z"/><path d="m118.776 374.5c-14.561 0-26.408 11.847-26.408 26.407 0 14.562 11.847 26.408 26.408 26.408s26.407-11.847 26.407-26.408c0-14.56-11.846-26.407-26.407-26.407zm0 37.815c-6.29 0-11.408-5.118-11.408-11.408s5.118-11.407 11.408-11.407 11.407 5.117 11.407 11.407-5.117 11.408-11.407 11.408z"/><path d="m247.308 127.548c-2.072-3.588-6.658-4.815-10.245-2.745-3.587 2.071-4.816 6.658-2.745 10.245l17.992 31.163c1.34 2.32 3.815 3.75 6.495 3.75h35.984c4.142 0 7.5-3.357 7.5-7.5s-3.358-7.5-7.5-7.5h-31.654z"/><path d="m101.835 260.588 35.984-.001c4.143 0 7.5-3.358 7.5-7.5 0-4.143-3.358-7.5-7.5-7.5l-31.654.001-15.828-27.414c-2.071-3.588-6.658-4.814-10.245-2.745-3.587 2.071-4.816 6.658-2.745 10.245l17.993 31.164c1.34 2.32 3.816 3.75 6.495 3.75z"/><path d="m390 124.347h13.347v13.347c0 4.143 3.358 7.5 7.5 7.5s7.5-3.357 7.5-7.5v-13.347h13.346c4.142 0 7.5-3.357 7.5-7.5s-3.358-7.5-7.5-7.5h-13.346v-13.347c0-4.143-3.358-7.5-7.5-7.5s-7.5 3.357-7.5 7.5v13.347h-13.347c-4.142 0-7.5 3.357-7.5 7.5s3.358 7.5 7.5 7.5z"/><path d="m43 110h10v10c0 4.143 3.358 7.5 7.5 7.5s7.5-3.357 7.5-7.5v-10h10c4.142 0 7.5-3.357 7.5-7.5s-3.358-7.5-7.5-7.5h-10v-10c0-4.143-3.358-7.5-7.5-7.5s-7.5 3.357-7.5 7.5v10h-10c-4.142 0-7.5 3.357-7.5 7.5s3.358 7.5 7.5 7.5z"/><path d="m256 260.5c4.142 0 7.5-3.357 7.5-7.5v-5h5c4.142 0 7.5-3.357 7.5-7.5s-3.358-7.5-7.5-7.5h-5v-5c0-4.143-3.358-7.5-7.5-7.5s-7.5 3.357-7.5 7.5v5h-5c-4.142 0-7.5 3.357-7.5 7.5s3.358 7.5 7.5 7.5h5v5c0 4.143 3.358 7.5 7.5 7.5z"/><path d="m229.557 200.616c2.225 3.856 6.373 6.252 10.826 6.252h72.827c4.453 0 8.602-2.396 10.825-6.25l36.414-63.07c2.225-3.854 2.226-8.643 0-12.5l-36.413-63.068c-2.225-3.856-6.373-6.252-10.826-6.252h-18.914c-4.142 0-7.5 3.357-7.5 7.5s3.358 7.5 7.5 7.5h17.47l34.97 60.569-34.97 60.57h-69.94l-34.97-60.57 34.97-60.569h17.47c4.142 0 7.5-3.357 7.5-7.5s-3.358-7.5-7.5-7.5h-18.914c-4.453 0-8.602 2.396-10.825 6.25l-36.415 63.071c-2.225 3.855-2.224 8.645.001 12.498z"/><path d="m116.682 112.238c2.225 3.856 6.373 6.252 10.826 6.252h31.749c4.453 0 8.602-2.396 10.825-6.25l15.874-27.493c2.228-3.856 2.228-8.647.001-12.502l-15.875-27.495c-2.226-3.855-6.374-6.25-10.825-6.25h-31.749c-4.452 0-8.6 2.395-10.825 6.25l-15.875 27.495c-2.226 3.855-2.226 8.645 0 12.5zm12.27-58.738h28.862l14.431 24.995-14.431 24.995h-28.862l-14.431-24.995z"/><path d="m355.175 222.745 15.874 27.493c2.225 3.856 6.373 6.252 10.826 6.252h31.749c4.452 0 8.6-2.395 10.826-6.25l15.873-27.493c2.228-3.856 2.228-8.647.001-12.502l-15.875-27.497c-2.226-3.854-6.374-6.248-10.825-6.248h-31.749c-4.452 0-8.6 2.395-10.825 6.25l-15.875 27.495c-2.226 3.856-2.226 8.645 0 12.5zm28.143-31.245h28.862l14.431 24.995-14.431 24.995h-28.862l-14.431-24.995z"/><circle cx="50.16" cy="400.37" r="7.5"/><circle cx="187.38" cy="400.37" r="7.5"/><circle cx="324.6" cy="400.37" r="7.5"/><circle cx="461.84" cy="400.37" r="7.5"/></g></g><g/><g/><g/><g/><g/><g/><g/><g/><g/><g/><g/><g/><g/><g/><g/></svg>