<svg id="Capa_1" enable-background="new 0 0 511.891 511.891" height="512" viewBox="0 0 511.891 511.891" width="512" xmlns="http://www.w3.org/2000/svg"><g><g><path d="m418.275 362.861-17.659-8.318c-14.465-6.816-26.066-18.59-32.667-33.152l-52.813-116.533c10.13-12.684 23.413-17.615 39.437-23.562 5.325-1.977 10.833-4.021 16.497-6.46 28.184-12.138 41.238-44.941 29.101-73.124-11.767-27.323-44.118-40.762-71.812-29.646-7.507-10.05-19.434-16.342-31.957-16.97-.083-9.723-2.728-19.299-7.815-27.865-7.479-12.594-19.395-21.601-33.552-25.359-29.198-7.752-59.251 9.294-67.695 38.12-19.431-.492-37.118 12.891-42.097 31.612-5.32 20.016 4.383 40.745 23.093 49.47l24.278 13.564c12.672 7.074 22.537 17.804 28.528 31.026l15.972 35.253-30.321 55.822c-2.637 4.854-.839 10.925 4.014 13.561 4.854 2.638 10.924.838 13.561-4.014l42.329-77.93c9.691-17.172 13.371-37.278 10.286-56.765l-4.411-27.843c-1.928-12.041 2.697-23.965 15.152-27.702 11.504-3.537 22.865 2.67 27.552 13.286.043.098 4.174 10.221.938 19.987-1.737 5.243 1.104 10.901 6.347 12.638 5.185 1.722 10.929-1.188 12.638-6.347 3.179-9.594 2.502-18.735 1.168-25.197 17.626-6.738 37.996 1.933 45.436 19.208 7.775 18.055-.587 39.069-18.642 46.845-5.194 2.237-10.456 4.19-15.546 6.079-23.632 8.77-44.506 19.821-56.641 43.032l-25.85 47.505c-.004.008-.007.016-.011.024l-69.718 128.099c-.031.058-.062.115-.093.173-9.553 18.404-12.253 39.669-7.603 59.876l4.401 19.13c2.888 12.149-3.354 24.559-14.841 29.505-7.749 3.336-16.929 2.541-24.03-1.997-5.893-3.765-11.64-12.443-10.032-19.898 1.164-5.398-2.269-10.719-7.667-11.884-5.395-1.165-10.719 2.268-11.884 7.667-1.188 5.509-.263 11.569 1.154 16.648-14.417 2.022-29.014-5.698-35.044-19.701-8.152-18.926 2.572-36.74 19.876-44.542l16.911-7.539c17.968-8.011 32.861-22.03 41.945-39.481l14.153-26.057c2.637-4.854.839-10.925-4.014-13.561-4.854-2.638-10.924-.839-13.561 4.014l-14.197 26.138c-.03.056-.06.11-.088.166-7.003 13.489-18.504 24.326-32.384 30.514l-16.595 7.399c-28.16 10.384-42.323 43.215-30.417 70.86 8.647 20.08 28.277 32.116 48.874 32.114 4.858 0 9.772-.67 14.606-2.062 13.057 12.948 33.394 16.853 50.303 9.571 20.429-8.798 31.526-30.876 26.405-52.428l-4.386-19.061c-3.579-15.554-1.512-31.92 5.82-46.094l60.081-110.392 32.199 71.054c6.276 13.837 7.687 29.574 3.973 44.309l-4.45 17.636c-9.211 28.594 7.879 59.991 36.899 67.698 25.503 6.786 52.968-6.839 62.866-31.315 18.185-2.25 33.782-15.441 38.615-33.619 5.711-21.492-4.767-43.854-24.915-53.185zm-169.19-183.984-9.727-21.468c-7.658-16.902-20.797-31.191-36.994-40.233-8.372-4.677-16.634-10.154-25.359-14.129-10.044-4.561-15.273-15.624-12.435-26.304 3.291-12.374 16.085-18.911 28.186-15.815.105.028 10.621 2.966 16.356 11.637 2.982 4.508 9.323 5.823 13.857 2.824 4.606-3.047 5.871-9.251 2.824-13.857-5.575-8.429-13.177-13.547-19.081-16.493 5.638-18.111 24.674-28.754 43.187-23.838 16.945 4.499 27.947 20.872 26.32 37.89-17.362 8.142-27.297 27.457-23.735 46.314 4.676 24.79 9.779 50.207-3.399 73.472zm174.778 232.033c-3.048 11.467-13.667 19.395-25.485 19.068-4.29-.998-10.812-3.459-12.779-5.834-3.523-4.252-9.826-4.844-14.081-1.321-4.253 3.523-4.844 9.828-1.321 14.081 3.598 4.343 8.938 7.363 13.807 9.389-7.396 12.771-22.896 19.153-37.155 15.36-19.651-5.22-27.381-24.702-22.726-43.156l4.531-17.957c4.817-19.111 2.988-39.518-5.149-57.459l-38.434-84.809 17.632-32.396 47.03 103.771c8.56 18.884 23.603 34.15 42.359 42.989l17.696 8.335c11.238 5.107 17.232 18.052 14.075 29.939z"/><path d="m189.117 308.324c7.741 5.151 17.952-2.6 15.034-11.446-2.832-8.585-15.252-9.088-18.723-.694-1.79 4.326-.245 9.561 3.689 12.14z"/></g></g></svg>