<svg id="Layer_1" enable-background="new 0 0 512.006 512.006" height="512" viewBox="0 0 512.006 512.006" width="512" xmlns="http://www.w3.org/2000/svg"><g><path d="m115.091 217.175c1.739.625 3.479.626 5.219.003 1.693-.628 41.479-15.695 41.496-44.358.008-15.151-12.312-27.485-27.462-27.493-.006 0-.01 0-.016 0-6.081 0-11.88 2-16.589 5.569-4.71-3.578-10.512-5.584-16.599-5.588-14.907 0-27.485 12.511-27.494 27.462-.016 28.662 39.752 43.775 41.445 44.405zm-22.785-53.218c5.4-5.393 14.898-4.517 19.195 1.898 2.969 4.43 9.483 4.435 12.457.007 2.329-3.467 6.205-5.536 10.37-5.536.002 0 .008-.002.007 0 6.88.004 12.474 5.604 12.471 12.485-.008 13.798-19.007 24.873-29.048 29.223-7.541-3.357-29.12-14.281-29.111-29.257.001-3.332 1.301-6.464 3.659-8.82z"/><path d="m483.813 394.195c-2.053-6.812-6.699-12.343-12.896-15.768-5.121-2.748-10.897-3.711-16.482-2.88-2.396-5.111-6.391-9.395-11.511-12.143-12.931-6.939-29.099-2.065-36.037 10.866-5.609 10.454-4.621 23.76 2.859 38.479 5.202 10.236 11.788 17.751 12.066 18.066 1.188 1.347 2.819 2.222 4.599 2.468 7.032.962 14.761.877 21.725.067 16.401-1.903 28.036-8.436 33.646-18.889 3.363-6.261 4.084-13.46 2.031-20.266zm-15.247 13.175c-3.99 7.435-14.1 10.112-21.879 11.05-6.258.753-12.104.527-15.415.277-2-2.567-5.328-7.183-8.153-12.742-3.597-7.078-7.04-17.09-3.015-24.591 3.028-5.643 10.085-7.771 15.727-4.742 3.419 1.835 5.688 5.24 6.069 9.111 1.564 5.866 5.223 7.83 10.977 5.891 3.436-1.823 7.529-1.814 10.947.021 6.615 0 6.049 13.289 4.742 15.725z"/><path d="m139.508 295.168c-7.811-18.22-28.989-26.688-47.21-18.88 0 0 0 0-.001 0-8.099 3.474-14.517 9.718-18.238 17.466-8.178-2.648-17.125-2.306-25.226 1.166-18.221 7.811-26.69 28.989-18.88 47.211 11.756 27.422 49.473 34.186 76.107 32.901 1.793-.09 3.496-.819 4.796-2.057 1.801-1.709 43.873-42.298 28.652-77.807zm-36.996 64.96c-15.781.127-50.106-3.696-58.771-23.907-4.552-10.619.384-22.962 11.003-27.514 6.249-2.678 13.988-1.995 19.672 1.688 5.562 2.436 9.378.799 11.449-4.908 1.296-6.893 5.91-12.654 12.342-15.412 10.621-4.553 22.962.385 27.514 11.003 8.666 20.215-12.241 47.763-23.209 59.05z"/><path d="m376.417 66.668c-3.96 1.214-6.187 5.408-4.973 9.369 2.521 8.221 3.798 16.796 3.798 25.485v210.521c0 4.426-1.376 8.647-3.772 12.164v-.138c0-36.349-20.627-60.277-29.106-68.576v-123.56c0-4.143-3.357-7.5-7.5-7.5-40.961 0-67.662-10.594-82.849-19.48-16.358-9.573-23.236-19.274-23.278-19.336-4.063-5.974-13.702-3.007-13.702 4.218v44.59c0 2.985-.539 5.943-1.555 8.735-6.97-12.685-10.625-26.867-10.625-41.637 0-47.709 38.667-86.522 86.194-86.522 24.262 0 47.534 10.351 63.85 28.398 6.503 7.193 17.631-2.866 11.127-10.059-19.154-21.189-46.483-33.34-74.978-33.34-55.798 0-101.194 45.543-101.194 101.522 0 20.542 6.016 40.124 17.424 56.952l-.049.087c-3.518 6.261-1.729 14.076 4.16 18.18 9.579 6.672 5.319 23.983 10.774 33.715 8.491 17.887 26.631 30.367 47.593 30.525l8.305.063-.572 12.623c-9.322 4.091-31.144 14.263-45.706 25.746-12.971 8.808-36.772 25.105-35.685 51.296.459 11.063 6.835 21.252 16.323 28.012-27.034 9.981-49.542 26.398-65.896 48.24-19.669 26.269-30.065 59.675-30.065 96.608 0 4.143 3.358 7.5 7.5 7.5 1.816 0 3.48-.646 4.778-1.719 3.178 1.744 6.685 2.656 10.27 2.656 9.785 0 20.193-3.69 29.716-5.643l140.467-25.344c20.381-3.678 35.173-21.418 35.173-42.184v-109.201c0-44.526-68.914-44.837-68.914 0v77.246c0 6.248-3.912 11.915-9.735 14.102l-39.649 14.89c-9.079 3.409-3.804 17.455 5.273 14.043l39.649-14.89c11.641-4.371 19.462-15.682 19.462-28.145v-77.246c0-25.281 38.914-25.281 38.914 0v109.202c0 13.502-9.604 25.034-22.837 27.422l-133.394 24.067-3.68-17.171 30.704-11.53c9.079-3.409 3.805-17.45-5.273-14.043l-36.604 13.746-23.251 7.567c4.218-19.806 12.128-37.75 23.503-52.943 18.488-24.692 45.961-41.679 79.449-49.124 8.282-1.841 7.268-14.325-1.201-14.81-13.466-.768-25.233-10.812-25.695-21.932-.655-15.776 13.294-27.338 27.175-36.928 11.159.61 22.591-.107 33.63-1.63 24.734-3.41 46.587-11.534 63.652-23.61 7.597 7.986 22.928 27.638 22.928 56.151v179.5c0 9.697 15 9.697 15 0v-159.571c11.406-6.373 18.772-18.62 18.772-31.953v-210.522c0-10.181-1.499-20.234-4.456-29.882-1.213-3.959-5.409-6.185-9.369-4.972zm-223.242 411.444 3.227 15.057-18.018 3.695c-1.763.359-3.555-.002-5.042-1.025-1.501-1.032-2.492-2.595-2.791-4.4-.533-3.227 1.395-6.417 4.484-7.423zm107.674-200.665c12.861-6.887 24.575-11.718 24.761-11.794 2.702-1.107 4.518-3.684 4.649-6.601l1.14-25.111c.093-2.046-.655-4.041-2.07-5.521s-3.374-2.318-5.422-2.318l-16.037-.119c-11.099-.084-21.097-4.988-28.024-12.731 12.773-3.667 18.823-13.96 19.149-14.53 2.056-3.596.827-8.214-2.77-10.269-3.598-2.058-8.157-.842-10.212 2.755-.523.866-4.871 7.585-14.093 8.265-1.218-3.749-1.886-7.744-1.886-11.895 0-8.884-4.182-17.233-11.237-22.54l6.045-10.762c3.396-6.047 5.192-12.911 5.192-19.851v-26.396c15.693 12.738 46.071 29.765 97.33 31.294v114.527c-21.139 16.062-47.387 21.73-66.515 23.597z"/></g></svg>