<svg id="Capa_1" enable-background="new 0 0 512 512" viewBox="0 0 512 512" xmlns="http://www.w3.org/2000/svg"><g><g><path d="m251.521 41.839c1.93-.079 3.918-.103 5.845-.082 1.064.014 2.125.042 3.182.086.106.005.212.007.317.007 3.998 0 7.32-3.156 7.487-7.188.172-4.139-3.043-7.633-7.182-7.805-1.199-.05-2.402-.082-3.618-.098-2.219-.03-4.449.003-6.641.092-4.139.169-7.357 3.66-7.189 7.799.169 4.138 3.662 7.358 7.799 7.189z"/><path d="m139.896 148.669c-4.137.21-7.319 3.733-7.109 7.871.173 3.407.489 6.845.94 10.217.504 3.769 3.724 6.507 7.424 6.507.331 0 .667-.022 1.004-.067 4.105-.549 6.988-4.322 6.439-8.428-.396-2.967-.675-5.991-.827-8.99-.21-4.136-3.723-7.33-7.871-7.11z"/><path d="m213.641 49.767c.915 0 1.845-.169 2.748-.524 2.787-1.099 5.655-2.092 8.522-2.952 3.968-1.19 6.219-5.372 5.028-9.339-1.189-3.968-5.377-6.217-9.339-5.028-3.268.98-6.535 2.112-9.712 3.364-3.854 1.519-5.746 5.873-4.228 9.728 1.164 2.95 3.989 4.751 6.981 4.751z"/><path d="m180.743 69.581c1.725 0 3.46-.592 4.873-1.802 2.28-1.952 4.666-3.829 7.091-5.58 3.358-2.425 4.116-7.112 1.691-10.471s-7.113-4.114-10.471-1.691c-2.76 1.992-5.473 4.127-8.065 6.346-3.146 2.694-3.515 7.429-.821 10.575 1.484 1.733 3.586 2.623 5.702 2.623z"/><path d="m152.262 97.973c1.195.704 2.506 1.039 3.8 1.039 2.568 0 5.071-1.321 6.469-3.694 1.521-2.58 3.167-5.13 4.896-7.577 2.39-3.383 1.584-8.063-1.799-10.453s-8.064-1.583-10.453 1.799c-1.966 2.784-3.84 5.684-5.568 8.618-2.103 3.568-.914 8.166 2.655 10.268z"/><path d="m140.896 134.732c.496.1.99.146 1.477.146 3.503 0 6.635-2.467 7.347-6.033.585-2.93 1.304-5.875 2.135-8.752 1.15-3.979-1.144-8.138-5.123-9.287-3.977-1.149-8.138 1.144-9.287 5.123-.948 3.28-1.767 6.639-2.434 9.98-.813 4.063 1.823 8.013 5.885 8.823z"/><path d="m287.138 46.338c2.857.864 5.717 1.862 8.501 2.967.907.36 1.844.531 2.765.531 2.983 0 5.806-1.793 6.973-4.735 1.528-3.85-.354-8.21-4.204-9.737-3.173-1.26-6.435-2.398-9.692-3.383-3.969-1.196-8.151 1.044-9.35 5.008-1.2 3.964 1.042 8.151 5.007 9.349z"/><path d="m319.284 62.31c2.425 1.757 4.808 3.638 7.082 5.591 1.415 1.215 3.153 1.81 4.883 1.81 2.111 0 4.21-.887 5.693-2.614 2.698-3.143 2.338-7.878-.805-10.576-2.586-2.22-5.295-4.358-8.053-6.356-3.355-2.431-8.043-1.682-10.474 1.673s-1.68 8.042 1.674 10.472z"/><path d="m349.45 95.466c1.398 2.373 3.9 3.693 6.469 3.693 1.294 0 2.605-.335 3.801-1.039 3.568-2.103 4.757-6.7 2.654-10.27-1.732-2.939-3.607-5.84-5.574-8.622-2.391-3.38-7.068-4.186-10.454-1.794-3.382 2.392-4.186 7.071-1.794 10.454 1.728 2.445 3.376 4.994 4.898 7.578z"/><path d="m360.147 120.246c.831 2.87 1.551 5.814 2.14 8.752.714 3.564 3.845 6.028 7.346 6.028.488 0 .983-.048 1.48-.147 4.062-.813 6.694-4.765 5.881-8.826-.67-3.35-1.491-6.706-2.438-9.979-1.151-3.979-5.312-6.266-9.29-5.118-3.979 1.152-6.271 5.312-5.119 9.29z"/><path d="m370.83 173.41c3.696 0 6.915-2.733 7.423-6.498.456-3.375.776-6.813.952-10.219.214-4.136-2.967-7.663-7.104-7.877-4.152-.229-7.663 2.968-7.877 7.104-.154 2.994-.437 6.018-.837 8.986-.554 4.104 2.324 7.882 6.43 8.436.34.046.678.068 1.013.068z"/><path d="m356.476 190.997-1.842 4.3c-1.627 3.564-.237 7.825 3.262 9.708 12.301 6.622 23.151 16.136 31.38 27.513 1.467 2.027 3.759 3.105 6.083 3.105 1.523 0 3.061-.463 4.39-1.424 3.356-2.428 4.109-7.116 1.682-10.473-8.232-11.382-18.734-21.152-30.625-28.558.635-3.431-1.203-6.95-4.563-8.311-3.838-1.55-8.212.301-9.767 4.14z"/><path d="m227.704 118.372c-4.143 0-7.5 3.357-7.5 7.5v11.63c0 4.143 3.357 7.5 7.5 7.5s7.5-3.357 7.5-7.5v-11.63c0-4.143-3.357-7.5-7.5-7.5z"/><path d="m291.796 137.502v-11.63c0-4.143-3.357-7.5-7.5-7.5s-7.5 3.357-7.5 7.5v11.63c0 4.143 3.357 7.5 7.5 7.5s7.5-3.357 7.5-7.5z"/><path d="m274.101 171.47c-3.88 6.424-10.646 10.259-18.101 10.259s-14.221-3.835-18.101-10.259c-2.142-3.546-6.752-4.684-10.298-2.542-3.546 2.143-4.684 6.753-2.542 10.298 6.621 10.96 18.188 17.503 30.94 17.503s24.319-6.543 30.94-17.503c2.142-3.545 1.004-8.155-2.542-10.298-3.543-2.141-8.154-1.005-10.296 2.542z"/><path d="m382.57 67.988h14.841c1.012 5.157 3.042 9.953 5.879 14.166l-10.502 10.501c-2.93 2.929-2.93 7.678-.001 10.606 1.465 1.465 3.384 2.197 5.304 2.197 1.919 0 3.839-.732 5.303-2.196l10.503-10.502c4.212 2.837 9.009 4.867 14.166 5.879v14.841c0 4.143 3.357 7.5 7.5 7.5s7.5-3.357 7.5-7.5v-14.841c5.157-1.012 9.953-3.042 14.166-5.879l10.502 10.502c1.465 1.464 3.385 2.196 5.304 2.196s3.839-.732 5.304-2.196c2.929-2.93 2.929-7.678 0-10.607l-10.502-10.502c2.837-4.212 4.866-9.008 5.878-14.165h14.842c4.143 0 7.5-3.357 7.5-7.5s-3.357-7.5-7.5-7.5h-14.842c-1.012-5.157-3.042-9.953-5.878-14.165l10.503-10.503c2.929-2.93 2.929-7.678 0-10.607-2.93-2.928-7.678-2.928-10.607 0l-10.502 10.502c-4.212-2.837-9.008-4.867-14.166-5.879v-14.836c0-4.143-3.357-7.5-7.5-7.5s-7.5 3.357-7.5 7.5v14.836c-5.157 1.012-9.954 3.042-14.166 5.879l-10.503-10.502c-2.928-2.928-7.677-2.929-10.606.001-2.929 2.929-2.929 7.678.001 10.606l10.502 10.502c-2.837 4.212-4.867 9.009-5.879 14.166h-14.844c-4.143 0-7.5 3.357-7.5 7.5s3.358 7.5 7.5 7.5zm76.876-7.5c0 13.17-10.714 23.884-23.884 23.884s-23.884-10.714-23.884-23.884 10.714-23.885 23.884-23.885 23.884 10.715 23.884 23.885z"/><path d="m23.444 67.988h14.842c1.012 5.157 3.041 9.953 5.878 14.165l-10.502 10.502c-2.929 2.93-2.929 7.678 0 10.607 1.465 1.464 3.385 2.196 5.304 2.196s3.839-.732 5.304-2.196l10.502-10.502c4.212 2.837 9.008 4.867 14.166 5.879v14.841c0 4.143 3.357 7.5 7.5 7.5s7.5-3.357 7.5-7.5v-14.841c5.157-1.012 9.954-3.042 14.166-5.879l10.503 10.502c1.464 1.464 3.384 2.196 5.303 2.196s3.839-.732 5.304-2.197c2.929-2.929 2.929-7.678-.001-10.606l-10.503-10.501c2.837-4.212 4.867-9.008 5.879-14.166h14.841c4.143 0 7.5-3.357 7.5-7.5s-3.357-7.5-7.5-7.5h-14.841c-1.012-5.157-3.042-9.954-5.879-14.166l10.502-10.502c2.93-2.929 2.93-7.678.001-10.606s-7.678-2.93-10.606-.001l-10.504 10.502c-4.212-2.837-9.009-4.867-14.166-5.879v-14.836c0-4.143-3.357-7.5-7.5-7.5s-7.5 3.357-7.5 7.5v14.836c-5.157 1.012-9.953 3.042-14.166 5.879l-10.501-10.502c-2.93-2.928-7.678-2.928-10.607 0-2.929 2.93-2.929 7.678 0 10.607l10.503 10.503c-2.837 4.212-4.866 9.008-5.878 14.165h-14.844c-4.143 0-7.5 3.357-7.5 7.5s3.358 7.5 7.5 7.5zm76.877-7.5c0 13.17-10.714 23.884-23.884 23.884s-23.883-10.714-23.883-23.884 10.714-23.885 23.884-23.885 23.883 10.715 23.883 23.885z"/><path d="m99.084 179.118c4.143 0 7.5-3.357 7.5-7.5s-3.357-7.5-7.5-7.5h-15.146v-15.146c0-4.143-3.357-7.5-7.5-7.5s-7.5 3.357-7.5 7.5v15.146h-15.148c-4.143 0-7.5 3.357-7.5 7.5s3.357 7.5 7.5 7.5h15.147v15.147c0 4.143 3.357 7.5 7.5 7.5s7.5-3.357 7.5-7.5v-15.147z"/><path d="m435.562 201.766c4.143 0 7.5-3.357 7.5-7.5v-15.147h15.147c4.143 0 7.5-3.357 7.5-7.5s-3.357-7.5-7.5-7.5h-15.147v-15.146c0-4.143-3.357-7.5-7.5-7.5s-7.5 3.357-7.5 7.5v15.146h-15.146c-4.143 0-7.5 3.357-7.5 7.5s3.357 7.5 7.5 7.5h15.146v15.147c0 4.142 3.358 7.5 7.5 7.5z"/><path d="m66.686 242.331h-15.148v-15.147c0-4.143-3.357-7.5-7.5-7.5s-7.5 3.357-7.5 7.5v15.147h-15.146c-4.143 0-7.5 3.357-7.5 7.5s3.357 7.5 7.5 7.5h15.146v15.146c0 4.143 3.357 7.5 7.5 7.5s7.5-3.357 7.5-7.5v-15.146h15.147c4.143 0 7.5-3.357 7.5-7.5s-3.357-7.5-7.499-7.5z"/><path d="m490.608 242.331h-15.146v-15.147c0-4.143-3.357-7.5-7.5-7.5s-7.5 3.357-7.5 7.5v15.147h-15.147c-4.143 0-7.5 3.357-7.5 7.5s3.357 7.5 7.5 7.5h15.147v15.146c0 4.143 3.357 7.5 7.5 7.5s7.5-3.357 7.5-7.5v-15.146h15.146c4.143 0 7.5-3.357 7.5-7.5s-3.357-7.5-7.5-7.5z"/><path d="m428.185 295.254h-6.365v-8.553c0-9.857-1.345-19.645-3.998-29.089-1.12-3.987-5.261-6.311-9.249-5.192-3.987 1.12-6.312 5.261-5.192 9.249 2.282 8.124 3.439 16.546 3.439 25.032v8.553h-18.685v-8.553c0-38.911-30.034-70.785-68.18-73.761 15.908-16.193 25.737-38.376 25.737-62.815 0-49.456-40.235-89.691-89.691-89.691-15.776 0-31.314 4.177-44.937 12.08-3.583 2.079-4.802 6.668-2.724 10.251 2.08 3.583 6.668 4.804 10.251 2.724 11.338-6.579 24.273-10.055 37.409-10.055 41.185 0 74.691 33.507 74.691 74.691s-33.506 74.691-74.691 74.691-74.691-33.507-74.691-74.691c0-15.559 4.757-30.484 13.756-43.164 2.397-3.378 1.603-8.06-1.775-10.457-3.378-2.399-8.061-1.604-10.457 1.775-10.81 15.23-16.523 33.159-16.523 51.846 0 24.439 9.829 46.622 25.737 62.815-38.147 2.976-68.18 34.85-68.18 73.761v112.515c0 12.426 10.074 22.5 22.5 22.5h91.694c2.415 6.402 5.28 12.642 8.584 18.686h-133.964c-4.136 0-7.5-3.364-7.5-7.5v-146.2c0-34.148 18.746-65.452 48.923-81.694 3.5-1.884 4.89-6.146 3.263-9.71l-1.842-4.3c-1.555-3.839-5.926-5.692-9.767-4.138-3.359 1.36-5.197 4.876-4.564 8.306-31.626 19.619-51.013 54.1-51.013 91.536v146.2c0 12.406 10.094 22.5 22.5 22.5h143.387c.584.82 1.156 1.645 1.758 2.455 18.765 25.277 44.458 43.672 74.301 53.197 1.976.631 4.008.946 6.04.946 2.031 0 4.063-.315 6.038-.946 29.845-9.525 55.538-27.921 74.302-53.197 19.144-25.787 29.262-56.439 29.262-88.646v-54.374c-.001-10.798-8.787-19.583-19.584-19.583zm4.583 73.957c0 28.961-9.097 56.522-26.306 79.704-16.88 22.739-39.985 39.285-66.819 47.85-.967.309-1.987.309-2.954 0-26.833-8.564-49.939-25.11-66.819-47.85-17.209-23.182-26.306-50.742-26.306-79.704v-7.086c0-4.143-3.357-7.5-7.5-7.5s-7.5 3.357-7.5 7.5v7.086c0 12.818 1.608 25.388 4.745 37.505h-86.943c-4.142 0-7.5-3.358-7.5-7.5v-112.516c0-32.59 26.42-59.01 59.01-59.01h13.134c13.233 7.706 28.605 12.126 44.991 12.126s31.757-4.42 44.991-12.126h13.133c32.591 0 59.011 26.42 59.011 59.011v6.732c-7.955-2.198-15.316-6.343-21.453-12.21-7.58-7.244-19.452-7.245-27.032.001-9.464 9.047-21.829 14.029-34.816 14.029h-41.687c-10.798 0-19.583 8.785-19.583 19.583v12.288c0 4.143 3.357 7.5 7.5 7.5s7.5-3.357 7.5-7.5v-12.288c0-2.527 2.056-4.583 4.583-4.583h41.687c16.867 0 32.913-6.459 45.182-18.187 1.765-1.688 4.535-1.69 6.302 0 12.27 11.728 28.315 18.187 45.182 18.187h41.687c2.527 0 4.583 2.056 4.583 4.583v54.375z"/><path d="m390.203 361.602h-23.137v-23.136c0-5.838-4.749-10.587-10.587-10.587h-36.628c-5.838 0-10.587 4.749-10.587 10.587v23.136h-23.137c-5.838 0-10.587 4.749-10.587 10.587v36.628c0 5.838 4.749 10.588 10.587 10.588h23.137v23.136c0 5.838 4.749 10.587 10.587 10.587h36.628c5.838 0 10.587-4.749 10.587-10.587v-23.136h23.137c5.838 0 10.587-4.75 10.587-10.588v-36.628c0-5.838-4.749-10.587-10.587-10.587zm-4.413 42.802h-23.137c-5.838 0-10.587 4.749-10.587 10.587v23.136h-27.802v-23.136c0-5.838-4.749-10.587-10.587-10.587h-23.137v-27.803h23.137c5.838 0 10.587-4.749 10.587-10.587v-23.136h27.802v23.136c0 5.838 4.749 10.587 10.587 10.587h23.137z"/></g></g><g/><g/><g/><g/><g/><g/><g/><g/><g/><g/><g/><g/><g/><g/><g/></svg>